<?xml version="1.0" encoding="UTF-8" standalone="no"?>
<svg
   xmlns:dc="http://purl.org/dc/elements/1.1/"
   xmlns:cc="http://creativecommons.org/ns#"
   xmlns:rdf="http://www.w3.org/1999/02/22-rdf-syntax-ns#"
   xmlns:svg="http://www.w3.org/2000/svg"
   xmlns="http://www.w3.org/2000/svg"
   xmlns:sodipodi="http://sodipodi.sourceforge.net/DTD/sodipodi-0.dtd"
   xmlns:inkscape="http://www.inkscape.org/namespaces/inkscape"
   sodipodi:docname="forest.svg"
   inkscape:version="1.0 (4035a4fb49, 2020-05-01)"
   id="svg1529"
   version="1.1"
   viewBox="0 0 119.0625 24.30261"
   height="24.30261mm"
   width="119.0625mm">
  <defs
     id="defs1523" />
  <sodipodi:namedview
     fit-margin-bottom="0"
     fit-margin-right="0"
     fit-margin-left="0"
     fit-margin-top="0"
     inkscape:pagecheckerboard="true"
     showgrid="false"
     inkscape:document-rotation="0"
     inkscape:current-layer="layer1"
     inkscape:document-units="px"
     inkscape:cy="85.508173"
     inkscape:cx="251.18062"
     inkscape:zoom="0.98994949"
     inkscape:pageshadow="2"
     inkscape:pageopacity="0.0"
     borderopacity="1.0"
     bordercolor="#666666"
     pagecolor="#ffffff"
     id="base" />
  <metadata
     id="metadata1526">
    <rdf:RDF>
      <cc:Work
         rdf:about="">
        <dc:format>image/svg+xml</dc:format>
        <dc:type
           rdf:resource="http://purl.org/dc/dcmitype/StillImage" />
        <dc:title></dc:title>
      </cc:Work>
    </rdf:RDF>
  </metadata>
  <g
     transform="translate(-15.84693,-109.99833)"
     id="layer1"
     inkscape:groupmode="layer"
     inkscape:label="Layer 1">
    <g
       id="g4985"
       transform="translate(-248.73643,-181.10694)">
      <path
         id="path4378"
         d="m 264.58336,314.87871 h 119.0625"
         style="fill:none;stroke:#ffffff;stroke-width:1.05833;stroke-linecap:butt;stroke-linejoin:miter;stroke-miterlimit:4;stroke-dasharray:none;stroke-opacity:1" />
      <path
         id="path4422"
         style="fill:none;stroke:#ffffff;stroke-width:1.05833;stroke-linecap:round;stroke-linejoin:miter;stroke-miterlimit:4;stroke-dasharray:none;stroke-opacity:1"
         d="m 315.16676,296.52724 5.41342,5.41342 m -5.41342,-5.41342 -5.41342,5.41342 m 5.41342,-0.52063 5.41342,5.41342 m -5.41342,-5.41342 -5.41342,5.41342 m 5.41342,-0.52063 5.41342,5.41342 m -5.41342,-5.41342 -5.41342,5.41342 m 5.41342,-20.09179 5.41342,5.41342 m -5.41342,-5.41342 -5.41342,5.41342 m 5.41342,17.83085 v -23.24428" />
      <path
         d="m 336.85871,296.52724 5.41342,5.41342 m -5.41342,-5.41342 -5.41342,5.41342 m 5.41342,-0.52063 5.41342,5.41342 m -5.41342,-5.41342 -5.41342,5.41342 m 5.41342,-0.52063 5.41342,5.41342 m -5.41342,-5.41342 -5.41342,5.41342 m 5.41342,-20.09179 5.41342,5.41342 m -5.41342,-5.41342 -5.41342,5.41342 m 5.41342,17.83085 v -23.24428"
         style="fill:none;stroke:#ffffff;stroke-width:1.05833;stroke-linecap:round;stroke-linejoin:miter;stroke-miterlimit:4;stroke-dasharray:none;stroke-opacity:1"
         id="path4424" />
      <path
         id="path4426"
         style="fill:none;stroke:#ffffff;stroke-width:1.05833;stroke-linecap:round;stroke-linejoin:miter;stroke-miterlimit:4;stroke-dasharray:none;stroke-opacity:1"
         d="m 294.88622,301.11773 4.00199,3.96423 m -4.00199,-3.96423 -4.00198,3.96423 m 4.00198,-0.38126 4.00199,3.96423 m -4.00199,-3.96423 -4.00198,3.96423 m 4.00198,-0.38125 4.00199,3.96423 m -4.00199,-3.96423 -4.00198,3.96423 m 4.00198,-14.71315 4.00199,3.96423 m -4.00199,-3.96423 -4.00198,3.96423 m 4.00198,13.05747 v -17.02171" />
      <path
         d="m 357.13924,301.11773 4.00198,3.96423 m -4.00198,-3.96423 -4.00199,3.96423 m 4.00199,-0.38126 4.00198,3.96423 m -4.00198,-3.96423 -4.00199,3.96423 m 4.00199,-0.38125 4.00198,3.96423 m -4.00198,-3.96423 -4.00199,3.96423 m 4.00199,-14.71315 4.00198,3.96423 m -4.00198,-3.96423 -4.00199,3.96423 m 4.00199,13.05747 v -17.02171"
         style="fill:none;stroke:#ffffff;stroke-width:1.05833;stroke-linecap:round;stroke-linejoin:miter;stroke-miterlimit:4;stroke-dasharray:none;stroke-opacity:1"
         id="path4428" />
    </g>
  </g>
</svg>
