<?xml version="1.0" encoding="UTF-8" standalone="no"?>
<svg
   xmlns:dc="http://purl.org/dc/elements/1.1/"
   xmlns:cc="http://creativecommons.org/ns#"
   xmlns:rdf="http://www.w3.org/1999/02/22-rdf-syntax-ns#"
   xmlns:svg="http://www.w3.org/2000/svg"
   xmlns="http://www.w3.org/2000/svg"
   xmlns:sodipodi="http://sodipodi.sourceforge.net/DTD/sodipodi-0.dtd"
   xmlns:inkscape="http://www.inkscape.org/namespaces/inkscape"
   sodipodi:docname="skills.svg"
   inkscape:version="1.0 (4035a4fb49, 2020-05-01)"
   id="svg1911"
   version="1.1"
   viewBox="0 0 287.96445 243.14977"
   height="243.14977mm"
   width="287.96445mm">
  <defs
     id="defs1905" />
  <sodipodi:namedview
     fit-margin-bottom="0"
     fit-margin-right="0"
     fit-margin-left="0"
     fit-margin-top="0"
     inkscape:showpageshadow="false"
     inkscape:pagecheckerboard="true"
     showgrid="false"
     inkscape:document-rotation="0"
     inkscape:current-layer="layer1"
     inkscape:document-units="px"
     inkscape:cy="-35.340608"
     inkscape:cx="378.84989"
     inkscape:zoom="0.175"
     inkscape:pageshadow="2"
     inkscape:pageopacity="0.0"
     borderopacity="1.0"
     bordercolor="#666666"
     pagecolor="#ffffff"
     id="base" />
  <metadata
     id="metadata1908">
    <rdf:RDF>
      <cc:Work
         rdf:about="">
        <dc:format>image/svg+xml</dc:format>
        <dc:type
           rdf:resource="http://purl.org/dc/dcmitype/StillImage" />
        <dc:title></dc:title>
      </cc:Work>
    </rdf:RDF>
  </metadata>
  <g
     transform="translate(4.1310288,-30.371539)"
     id="layer1"
     inkscape:groupmode="layer"
     inkscape:label="Layer 1">
    <g
       id="g1857"
       transform="translate(89.753384,-362.62308)">
      <path
         d="m 108.73115,579.50311 c -3.25213,-4.1808 -5.26041,-9.31698 -5.70669,-14.59488 -0.44628,-5.27791 0.67105,-10.67838 3.175,-15.34589 3.16,-5.89044 8.32409,-10.41 13.44133,-14.71079 5.11724,-4.3008 10.39678,-8.62953 13.91687,-14.31213 1.35784,-2.19201 2.43263,-4.55915 3.18928,-7.02413 m -65.159779,7.67511 c 2.9909,1.75856 6.55759,2.51871 10.00561,2.13245 3.44803,-0.38626 6.7581,-1.91678 9.28575,-4.29355 3.45181,-3.24577 5.29263,-7.79463 7.71691,-11.86561 1.21215,-2.03549 2.603989,-3.99228 4.379069,-5.56123 1.77508,-1.56895 3.96455,-2.73681 6.31814,-3.00724 2.57921,-0.29635 5.17601,0.49346 7.50117,1.64834 2.32516,1.15488 4.4496,2.67144 6.69853,3.96853 3.87402,2.23437 8.12492,3.81343 12.51816,4.65005 M -5.0205594,575.77243 c -0.24948,-9.0061 2.73764,-18.06814 8.29366,-25.16058 5.69521,-7.27012 14.0490504,-12.40915 23.1061904,-14.21423 m -89.252754,-66.98748 c -1.58954,-10.95366 1.20338,-22.48164 7.62996,-31.4932 5.21803,-7.31689 12.761614,-12.94864 21.259844,-15.87179 m 57.7634,97.45133 c -4.44923,3.48439 -10.5523,4.75228 -16.0212104,3.32836 -4.76145,-1.23972 -8.8289,-4.32492 -12.40099,-7.70849 -3.57208,-3.38356 -6.8023596,-7.14403 -10.6629396,-10.19431 -5.1557,-4.07357 -11.37864,-6.78405 -17.87278,-7.78473"
         style="fill:none;stroke:#ffffff;stroke-width:1.32292;stroke-linecap:round;stroke-linejoin:miter;stroke-miterlimit:4;stroke-dasharray:5.29167, 5.29167;stroke-dashoffset:0;stroke-opacity:1"
         id="path5726" />
      <g
         id="g1804">
        <circle
           style="fill:#2e3440;fill-opacity:1;stroke:none;stroke-width:0.264583;stroke-linecap:butt;stroke-linejoin:round;stroke-miterlimit:4;stroke-dasharray:none;stroke-dashoffset:0;stroke-opacity:1"
           id="path5485"
           cx="50.097813"
           cy="520.37921"
           r="31.37211" />
        <g
           id="g1756"
           transform="matrix(0.78994875,0,0,0.78994875,10.523117,91.171917)"
           style="stroke-width:1.2659">
          <path
             style="fill:#ffffff;fill-opacity:1;stroke-width:0.334937"
             fill="currentColor"
             d="m 36.652619,523.23938 2.443938,27.7167 10.966235,3.65541 11.036264,-3.65541 2.443946,-27.7167 z m 21.582336,8.95646 h -12.87098 l 0.28711,3.45933 h 12.296761 l -0.952376,10.39202 -6.855646,1.89073 v 0.0209 h -0.07707 l -6.911667,-1.91175 -0.420162,-5.30805 h 3.340292 l 0.245088,2.66803 3.746449,1.01539 3.760456,-1.01539 0.420163,-4.35568 H 42.555896 l -0.896347,-10.1959 h 16.883527 z"
             id="path5169" />
          <text
             id="text5572"
             y="563.35657"
             x="34.871948"
             style="font-style:normal;font-variant:normal;font-weight:bold;font-stretch:normal;font-size:8.36587px;line-height:1.25;font-family:sans-serif;-inkscape-font-specification:'sans-serif, Bold';font-variant-ligatures:normal;font-variant-caps:normal;font-variant-numeric:normal;font-variant-east-asian:normal;text-align:justify;letter-spacing:0px;word-spacing:0px;fill:#ffffff;fill-opacity:1;stroke-width:0.334937"
             xml:space="preserve"><tspan
               style="font-style:normal;font-variant:normal;font-weight:bold;font-stretch:normal;font-size:8.36587px;font-family:sans-serif;-inkscape-font-specification:'sans-serif, Bold';font-variant-ligatures:normal;font-variant-caps:normal;font-variant-numeric:normal;font-variant-east-asian:normal;fill:#ffffff;fill-opacity:1;stroke-width:0.334937"
               y="563.35657"
               x="34.871948"
               id="tspan5570"
               sodipodi:role="line">HTML 5</tspan></text>
        </g>
      </g>
      <g
         id="g1818">
        <circle
           style="fill:#2e3440;fill-opacity:1;stroke:none;stroke-width:0.264583;stroke-linecap:butt;stroke-linejoin:round;stroke-miterlimit:4;stroke-dasharray:none;stroke-dashoffset:0;stroke-opacity:1"
           id="circle5493"
           cx="-6.2072401"
           cy="604.77228"
           r="31.37211" />
        <g
           id="g1735"
           transform="matrix(0.78749006,0,0,0.78749006,-1.3190998,129.03239)"
           style="stroke-width:1.26986">
          <path
             style="fill:#ffffff;fill-opacity:1;stroke-width:0.335983"
             fill="currentColor"
             d="M 8.9036259,595.76203 C 8.3644327,593.59826 7.3420753,591.96669 5.1643074,591.96669 H 2.3563227 v 3.31917 c 0,2.5769 -2.1847716,4.74767 -4.6776479,4.74767 h -7.478633 c -2.0447168,0 -3.7393148,1.75061 -3.7393148,3.80233 v 7.12851 c 0,2.03072 1.764621,3.22114 3.7393148,3.80234 2.3668346,0.69324 4.6426337,0.81929 7.478633,0 1.88367042,-0.5462 3.7393184,-1.64558 3.7393184,-3.80234 v -2.85 h -7.4716277 v -0.95233 H 5.1643074 c 2.1777679,0 2.983052,-1.51954 3.7393185,-3.79534 0.784281,-2.34583 0.7492628,-4.60062 0,-7.60467 z m -10.7557864,14.25001 c 0.7772774,0 1.40749418,0.63722 1.40749418,1.4215 0,0.79127 -0.63021678,1.42849 -1.40749418,1.42849 -0.7702659,0 -1.4074942,-0.64421 -1.4074942,-1.42849 0.00711,-0.79128 0.6372283,-1.4215 1.4074942,-1.4215 z M -10.143076,599.0952 h 7.4786357 c 2.07972493,0 3.7393185,-1.71561 3.7393185,-3.80234 v -7.13551 c 0,-2.03072 -1.70861114,-3.55025 -3.7393185,-3.89337 -2.5068836,-0.41315 -5.2308468,-0.39214 -7.4786357,0.007 -3.165112,0.5602 -3.739313,1.72961 -3.739313,3.89337 v 2.85 h 7.4856315 v 0.95234 H -16.690382 c -2.177766,0 -4.082432,1.30946 -4.677644,3.79534 -0.686239,2.85 -0.714246,4.62862 0,7.60467 0.532186,2.21278 1.799635,3.79534 3.9774,3.79534 h 2.569907 v -3.41721 c 0,-2.47186 2.13575,-4.64963 4.677643,-4.64963 z m -0.469164,-9.98552 c -0.777274,0 -1.407495,-0.63722 -1.407495,-1.4215 0.007,-0.79127 0.630221,-1.42849 1.407495,-1.42849 0.7702718,0 1.4074939,0.64422 1.4074939,1.42849 0,0.78428 -0.6302208,1.4215 -1.4074939,1.4215 z"
             id="path5364" />
          <text
             id="text5580"
             y="624.18036"
             x="-23.783911"
             style="font-style:normal;font-variant:normal;font-weight:bold;font-stretch:normal;font-size:8.36587px;line-height:1.25;font-family:sans-serif;-inkscape-font-specification:'sans-serif, Bold';font-variant-ligatures:normal;font-variant-caps:normal;font-variant-numeric:normal;font-variant-east-asian:normal;text-align:justify;letter-spacing:0px;word-spacing:0px;fill:#ffffff;fill-opacity:1;stroke-width:0.335983"
             xml:space="preserve"><tspan
               style="font-style:normal;font-variant:normal;font-weight:bold;font-stretch:normal;font-size:8.36587px;font-family:sans-serif;-inkscape-font-specification:'sans-serif, Bold';font-variant-ligatures:normal;font-variant-caps:normal;font-variant-numeric:normal;font-variant-east-asian:normal;fill:#ffffff;fill-opacity:1;stroke-width:0.335983"
               y="624.18036"
               x="-23.783911"
               id="tspan5578"
               sodipodi:role="line">PYTHON</tspan></text>
        </g>
      </g>
      <g
         id="g1811">
        <circle
           r="31.37211"
           cy="604.77228"
           cx="106.40287"
           id="circle5487"
           style="fill:#2e3440;fill-opacity:1;stroke:none;stroke-width:0.264583;stroke-linecap:butt;stroke-linejoin:round;stroke-miterlimit:4;stroke-dasharray:none;stroke-dashoffset:0;stroke-opacity:1" />
        <g
           id="g1730"
           transform="matrix(0.78749019,0,0,0.78749019,22.611653,128.52004)"
           style="stroke-width:1.26986">
          <path
             style="fill:#ffffff;fill-opacity:1;stroke-width:0.335982"
             fill="currentColor"
             d="m 117.26905,584.6133 h -6.28749 l -4.57868,7.24412 -3.92458,-7.24412 H 88.088162 l 18.314708,31.37211 18.31471,-31.37211 z m -24.626744,2.61638 h 4.398806 l 9.361758,16.20525 9.35359,-16.20525 h 4.3988 l -13.75239,23.56384 z"
             id="path5419" />
          <text
             id="text5584"
             y="624.83087"
             x="97.88224"
             style="font-style:normal;font-variant:normal;font-weight:bold;font-stretch:normal;font-size:8.36587px;line-height:1.25;font-family:sans-serif;-inkscape-font-specification:'sans-serif, Bold';font-variant-ligatures:normal;font-variant-caps:normal;font-variant-numeric:normal;font-variant-east-asian:normal;text-align:justify;letter-spacing:0px;word-spacing:0px;fill:#ffffff;fill-opacity:1;stroke-width:0.335982"
             xml:space="preserve"><tspan
               style="font-style:normal;font-variant:normal;font-weight:bold;font-stretch:normal;font-size:8.36587px;font-family:sans-serif;-inkscape-font-specification:'sans-serif, Bold';font-variant-ligatures:normal;font-variant-caps:normal;font-variant-numeric:normal;font-variant-east-asian:normal;fill:#ffffff;fill-opacity:1;stroke-width:0.335982"
               y="624.83087"
               x="97.88224"
               id="tspan5582"
               sodipodi:role="line">VUE</tspan></text>
        </g>
      </g>
      <g
         id="g1749">
        <circle
           style="fill:#2e3440;fill-opacity:1;stroke:none;stroke-width:0.264583;stroke-linecap:butt;stroke-linejoin:round;stroke-miterlimit:4;stroke-dasharray:none;stroke-dashoffset:0;stroke-opacity:1"
           id="circle5495"
           cx="162.70792"
           cy="499.97284"
           r="31.37211" />
        <g
           id="g1742"
           transform="matrix(0.78749006,0,0,0.78749006,34.577049,88.121835)"
           style="stroke-width:1.26986">
          <path
             style="fill:#ffffff;fill-opacity:1;stroke-width:0.335983"
             fill="currentColor"
             d="m 147.02186,502.83302 v 31.37211 h 31.37211 v -31.37211 z m 17.0726,24.46744 c 0,3.05318 -1.7927,4.44672 -4.40471,4.44672 -2.35991,0 -3.72544,-1.21847 -4.4257,-2.69604 l 2.40192,-1.44956 c 0.46218,0.81932 0.88234,1.51258 1.89773,1.51258 0.96637,0 1.58261,-0.37815 1.58261,-1.85572 v -10.02087 h 2.94815 z m 6.97469,4.44672 c -2.73806,0 -4.50975,-1.30251 -5.37108,-3.01117 L 168.1,527.34948 c 0.63024,1.0294 1.45656,1.79269 2.90612,1.79269 1.21847,0 2.00277,-0.60923 2.00277,-1.45656 0,-1.00839 -0.79831,-1.36553 -2.14982,-1.96076 l -0.73529,-0.31511 c -2.12882,-0.90336 -3.53637,-2.0448 -3.53637,-4.44673 0,-2.21285 1.68766,-3.8935 4.31367,-3.8935 1.87673,0 3.22124,0.65125 4.18762,2.35992 l -2.29689,1.47056 c -0.5042,-0.90335 -1.0504,-1.26049 -1.89774,-1.26049 -0.86133,0 -1.40754,0.54622 -1.40754,1.26049 0,0.88234 0.54621,1.23948 1.8137,1.7927 l 0.73528,0.31511 c 2.50698,1.07142 3.91452,2.17084 3.91452,4.6358 0,2.64702 -2.0868,4.10358 -4.88088,4.10358 z"
             id="path5474" />
          <text
             id="text5588"
             y="543.0506"
             x="136.85742"
             style="font-style:normal;font-variant:normal;font-weight:bold;font-stretch:normal;font-size:8.36587px;line-height:1.25;font-family:sans-serif;-inkscape-font-specification:'sans-serif, Bold';font-variant-ligatures:normal;font-variant-caps:normal;font-variant-numeric:normal;font-variant-east-asian:normal;text-align:justify;letter-spacing:0px;word-spacing:0px;fill:#ffffff;fill-opacity:1;stroke-width:0.335983"
             xml:space="preserve"><tspan
               style="font-style:normal;font-variant:normal;font-weight:bold;font-stretch:normal;font-size:8.36587px;font-family:sans-serif;-inkscape-font-specification:'sans-serif, Bold';font-variant-ligatures:normal;font-variant-caps:normal;font-variant-numeric:normal;font-variant-east-asian:normal;fill:#ffffff;fill-opacity:1;stroke-width:0.335983"
               y="543.0506"
               x="136.85742"
               id="tspan5586"
               sodipodi:role="line">JAVASCRIPT</tspan></text>
        </g>
      </g>
      <g
         id="g1777">
        <circle
           style="fill:#2e3440;fill-opacity:1;stroke:none;stroke-width:0.264583;stroke-linecap:butt;stroke-linejoin:round;stroke-miterlimit:4;stroke-dasharray:none;stroke-dashoffset:0;stroke-opacity:1"
           id="circle5491"
           cx="-6.2072349"
           cy="424.36673"
           r="31.37211" />
        <g
           id="g1770"
           transform="translate(2.1135787,1.1345235)">
          <path
             style="fill:#ffffff;fill-opacity:1;stroke-width:0.264583"
             fill="currentColor"
             d="m -9.2553691,426.035 c -0.015438,0.0309 -0.030876,0.0556 0,0 z m 12.8214827,-4.47746 a 6.750153,6.750153 0 0 0 -2.98497057,0.69478 c -0.30364628,-0.61243 -0.61758245,-1.14767 -0.66904399,-1.54909 -0.06175182,-0.46834 -0.12866329,-0.74624 -0.0565851,-1.30207 0.07205377,-0.55583 0.39627961,-1.34324 0.39113785,-1.39985 -0.004977,-0.0566 -0.0720538,-0.33967 -0.7359497,-0.34481 -0.66390219,-0.005 -1.23516489,0.12866 -1.30155389,0.30364 a 6.3214495,6.3214495 0 0 0 -0.2727643,0.98298 c -0.1183673,0.60214 -1.3272816,2.75338 -2.0117698,3.87532 -0.2264446,-0.43746 -0.4168592,-0.82344 -0.4580372,-1.13224 -0.061751,-0.46832 -0.1286633,-0.74624 -0.056585,-1.30206 0.072054,-0.55582 0.3962796,-1.34323 0.3911316,-1.39985 -0.00498,-0.0565 -0.072048,-0.33966 -0.735433,-0.34481 -0.6633856,-0.005 -1.2351586,0.12866 -1.3020643,0.30364 -0.066906,0.17498 -0.1389594,0.5867 -0.2727644,0.98298 -0.1338113,0.39628 -1.7441533,3.97825 -2.1656502,4.90977 -0.2161548,0.47347 -0.4014277,0.85431 -0.5352327,1.11165 -0.020605,0.0411 -0.036043,0.0669 -0.046314,0.0875 0.015438,-0.0257 0.025709,-0.0515 0.025709,-0.0412 -0.1132254,0.22131 -0.1801248,0.34482 -0.1801248,0.34482 v 0.005 c -0.087492,0.16469 -0.1852729,0.31393 -0.2315927,0.31393 -0.030876,0 -0.097788,-0.43231 0.015438,-1.02415 0.2418887,-1.24546 0.8131451,-3.18054 0.8080034,-3.24745 -0.00498,-0.0361 0.1080711,-0.37054 -0.3757,-0.55067 -0.4683271,-0.16983 -0.6381622,0.11321 -0.6793339,0.11321 -0.041147,0 -0.072054,0.10294 -0.072054,0.10294 0,0 0.5198012,-2.18212 -0.9979019,-2.18212 -0.946956,0 -2.264465,1.03959 -2.911896,1.98141 -0.406575,0.22129 -1.286626,0.69992 -2.21299,1.20943 -0.355115,0.19557 -0.720512,0.39628 -1.06533,0.5867 -0.02571,-0.0257 -0.04631,-0.0515 -0.07205,-0.0772 -1.841935,-1.96596 -5.242744,-3.35551 -5.098649,-5.99568 0.05148,-0.96239 0.38599,-3.48932 6.539666,-6.55664 5.043571,-2.5115 9.0758567,-1.82186 9.7701242,-0.28821 0.998418,2.18727 -2.1558708,6.25816 -7.3934672,6.84485 -1.996331,0.22131 -3.045707,-0.55067 -3.308175,-0.83887 -0.272764,-0.30365 -0.313936,-0.31909 -0.416866,-0.26248 -0.169834,0.0926 -0.06175,0.36025 0,0.5198 0.154397,0.40657 0.797714,1.12709 1.893403,1.48734 0.962388,0.31393 3.303021,0.48892 6.1330844,-0.60729 3.1795123,-1.22487 5.654461,-4.637 4.9288074,-7.49331 -0.7390373,-2.90263 -5.5520483,-3.85473 -10.1031018,-2.23873 -2.711689,0.9624 -5.644171,2.47547 -7.753723,4.44658 -2.50583,2.34681 -2.906747,4.38997 -2.742054,5.24429 0.586184,3.03129 4.764114,5.00755 6.43622,6.46915 -0.08235,0.0463 -0.159545,0.0875 -0.231599,0.12867 -0.838362,0.41686 -4.023533,2.08434 -4.82073,3.84443 -0.900636,1.99684 0.149256,3.42758 0.838369,3.62314 2.150723,0.59699 4.352913,-0.47862 5.536093,-2.24387 1.183181,-1.76526 1.039597,-4.07088 0.494068,-5.12077 -0.005,-0.0154 -0.01544,-0.0257 -0.0206,-0.0412 0.216155,-0.12867 0.437451,-0.25733 0.658754,-0.386 0.426639,-0.25217 0.843511,-0.48377 1.208909,-0.68447 -0.205853,0.55582 -0.355102,1.22487 -0.432304,2.19241 -0.09264,1.13223 0.3757,2.59898 0.982987,3.17538 0.267616,0.25218 0.591332,0.25733 0.792042,0.25733 0.710216,0 1.0293,-0.5867 1.383898,-1.28663 0.437451,-0.85431 0.823441,-1.84758 0.823441,-1.84758 0,0 -0.483771,2.68647 0.838879,2.68647 0.4832548,0 0.9670259,-0.62273 1.1836912,-0.94181 v 0.005 c 0,0 0.010271,-0.0206 0.036043,-0.0617 0.051481,-0.0772 0.077202,-0.12351 0.077202,-0.12351 v -0.0154 c 0.1955627,-0.33452 0.6227243,-1.10135 1.2655178,-2.36739 0.8337372,-1.63659 1.6309278,-3.67975 1.6309278,-3.67975 a 10.356822,10.356822 0 0 0 0.3190842,1.3278 c 0.1441073,0.48892 0.4477474,1.02415 0.6896361,1.54395 -0.1955689,0.26761 -0.3139424,0.42202 -0.3139424,0.42202 a 0.01595416,0.01595416 0 0 0 0.00498,0.0102 c -0.1543909,0.20586 -0.3293677,0.42716 -0.5094988,0.64332 -0.6582375,0.78226 -1.4410237,1.67775 -1.543953,1.93508 -0.1235153,0.30364 -0.09264,0.53008 0.1441011,0.70507 0.174983,0.13381 0.4837711,0.15439 0.8074867,0.12866 0.5918485,-0.0412 1.008714,-0.18527 1.209431,-0.27792 a 4.2304255,4.2304255 0 0 0 1.0390756,-0.54488 c 0.64331,-0.47348 1.0344417,-1.15281 0.9984179,-2.04831 -0.020605,-0.49406 -0.1801248,-0.98813 -0.3756937,-1.45132 0.056585,-0.0823 0.1183734,-0.16982 0.174983,-0.25732 1.0184935,-1.48734 1.8059047,-3.1198 1.8059047,-3.1198 a 10.356822,10.356822 0 0 0 0.3190842,1.32779 c 0.1235152,0.41687 0.36488722,0.87491 0.58619006,1.32265 -0.95674196,0.77712 -1.54858436,1.67776 -1.75444316,2.26961 -0.3808479,1.09621 -0.08235,1.59027 0.4786231,1.70349 0.2521786,0.0515 0.6124345,-0.0669 0.8800509,-0.18013 a 4.0894111,4.0894111 0 0 0 1.111133,-0.57126 c 0.64331007,-0.47348 1.2655239,-1.13738 1.2243522,-2.03801 -0.015438,-0.40658 -0.1286633,-0.81315 -0.27791245,-1.20429 0.80800335,-0.33967 1.85737245,-0.52494 3.19546705,-0.37055 2.8655695,0.33453 3.4265365,2.12551 3.318459,2.87175 -0.1080712,0.74625 -0.7102161,1.16312 -0.9109269,1.28663 -0.200717,0.12352 -0.2624744,0.16984 -0.2470364,0.26248 0.025712,0.1338 0.1183732,0.12865 0.288208,0.0978 0.2367345,-0.0412 1.502265,-0.60729 1.5588745,-1.99171 0.082344,-1.7498 -1.6000461,-3.6746 -4.5803915,-3.65915 z m -22.0877586,7.44699 c -0.946447,1.03445 -2.274245,1.42559 -2.844985,1.0962 -0.61244,-0.35613 -0.370552,-1.87846 0.797191,-2.98085 0.710216,-0.66904 1.62578,-1.28662 2.233067,-1.66746 0.138952,-0.0823 0.339669,-0.20586 0.586699,-0.35511 0.04121,-0.0257 0.06176,-0.0361 0.06176,-0.0361 0.04631,-0.0309 0.09778,-0.0566 0.149249,-0.0875 0.426645,1.56453 0.01544,2.94379 -0.982979,4.02971 z m 6.914842,-4.7039 c -0.32938,0.80801 -1.023641,2.8666 -1.445655,2.75852 -0.360255,-0.0926 -0.581558,-1.66232 -0.07205,-3.20627 0.257326,-0.77712 0.802855,-1.70348 1.127087,-2.06374 0.519278,-0.58156 1.090541,-0.76683 1.224352,-0.53524 0.180125,0.30364 -0.627872,2.54238 -0.833731,3.04673 z m 5.7126148,2.72765 c -0.1389531,0.072 -0.2676164,0.11836 -0.329374,0.0823 -0.046314,-0.0257 0.056584,-0.12352 0.056584,-0.12352 0,0 0.7153638,-0.76683 0.9984242,-1.11678 0.164687,-0.20587 0.3551017,-0.44775 0.56045,-0.71536 0,0.0257 0.00498,0.0515 0.00498,0.0823 -0.00666,0.92122 -0.891374,1.54394 -1.2928016,1.79098 z m 4.4043749,-1.00357 c -0.1029294,-0.0721 -0.087492,-0.31394 0.2573265,-1.06533 0.1338113,-0.29334 0.44208274,-0.78741 0.97783835,-1.26089 a 1.8620047,1.8620047 0 0 1 0.0977814,0.55582 c -0.004977,1.15797 -0.83373101,1.59028 -1.33242965,1.7704 z"
             id="path5309" />
          <text
             id="text5592"
             y="439.02798"
             x="-17.217951"
             style="font-style:normal;font-variant:normal;font-weight:bold;font-stretch:normal;font-size:6.58804px;line-height:1.25;font-family:sans-serif;-inkscape-font-specification:'sans-serif, Bold';font-variant-ligatures:normal;font-variant-caps:normal;font-variant-numeric:normal;font-variant-east-asian:normal;text-align:justify;letter-spacing:0px;word-spacing:0px;fill:#ffffff;fill-opacity:1;stroke-width:0.264583"
             xml:space="preserve"><tspan
               style="font-style:normal;font-variant:normal;font-weight:bold;font-stretch:normal;font-size:6.58804px;font-family:sans-serif;-inkscape-font-specification:'sans-serif, Bold';font-variant-ligatures:normal;font-variant-caps:normal;font-variant-numeric:normal;font-variant-east-asian:normal;fill:#ffffff;fill-opacity:1;stroke-width:0.264583"
               y="439.02798"
               x="-17.217951"
               id="tspan5590"
               sodipodi:role="line">SASS</tspan></text>
        </g>
      </g>
      <g
         id="g1797">
        <circle
           style="fill:#2e3440;fill-opacity:1;stroke:none;stroke-width:0.264583;stroke-linecap:butt;stroke-linejoin:round;stroke-miterlimit:4;stroke-dasharray:none;stroke-dashoffset:0;stroke-opacity:1"
           id="circle5489"
           cx="-62.512302"
           cy="499.97284"
           r="31.37211" />
        <g
           id="g1763"
           transform="matrix(0.78749006,0,0,0.78749006,-13.284486,88.121835)"
           style="stroke-width:1.26986">
          <path
             style="fill:#ffffff;fill-opacity:1;stroke-width:0.335983"
             fill="currentColor"
             d="m -75.957491,502.83302 2.443941,27.7167 11.001248,3.65541 11.001246,-3.65541 2.443942,-27.7167 z m 21.925464,5.60217 -0.336133,3.31228 -8.074114,3.45232 -0.02099,0.007 h 7.808009 l -0.896344,10.26596 -6.876651,2.00978 -6.918674,-2.04479 -0.448172,-5.175 h 3.424323 l 0.224089,2.68203 3.68342,0.93137 3.830478,-1.07843 0.259097,-4.31366 -11.645489,-0.0349 v -0.007 l -0.01399,0.007 -0.252095,-3.24225 7.850025,-3.27027 0.45518,-0.18907 h -8.606324 l -0.406156,-3.31228 z"
             id="path5224" />
          <text
             xml:space="preserve"
             style="font-style:normal;font-variant:normal;font-weight:bold;font-stretch:normal;font-size:8.36587px;line-height:1.25;font-family:sans-serif;-inkscape-font-specification:'sans-serif, Bold';font-variant-ligatures:normal;font-variant-caps:normal;font-variant-numeric:normal;font-variant-east-asian:normal;text-align:justify;letter-spacing:0px;word-spacing:0px;fill:#ffffff;fill-opacity:1;stroke-width:0.335983"
             x="-74.617699"
             y="543.0506"
             id="text5576"><tspan
               sodipodi:role="line"
               id="tspan5574"
               x="-74.617699"
               y="543.0506"
               style="font-style:normal;font-variant:normal;font-weight:bold;font-stretch:normal;font-size:8.36587px;font-family:sans-serif;-inkscape-font-specification:'sans-serif, Bold';font-variant-ligatures:normal;font-variant-caps:normal;font-variant-numeric:normal;font-variant-east-asian:normal;fill:#ffffff;fill-opacity:1;stroke-width:0.335983">CSS 3</tspan></text>
        </g>
      </g>
    </g>
  </g>
</svg>
