<?xml version="1.0" encoding="UTF-8" standalone="no"?>
<svg
   xmlns:dc="http://purl.org/dc/elements/1.1/"
   xmlns:cc="http://creativecommons.org/ns#"
   xmlns:rdf="http://www.w3.org/1999/02/22-rdf-syntax-ns#"
   xmlns:svg="http://www.w3.org/2000/svg"
   xmlns="http://www.w3.org/2000/svg"
   xmlns:sodipodi="http://sodipodi.sourceforge.net/DTD/sodipodi-0.dtd"
   xmlns:inkscape="http://www.inkscape.org/namespaces/inkscape"
   sodipodi:docname="skills.svg"
   inkscape:version="1.0 (4035a4fb49, 2020-05-01)"
   id="svg3144"
   version="1.1"
   viewBox="0 0 287.96445 253.63264"
   height="253.63264mm"
   width="287.96445mm">
  <defs
     id="defs3138" />
  <sodipodi:namedview
     showgrid="false"
     inkscape:document-rotation="0"
     inkscape:current-layer="layer1"
     inkscape:document-units="mm"
     inkscape:cy="413.59151"
     inkscape:cx="275.61333"
     inkscape:zoom="0.35"
     inkscape:pageshadow="2"
     inkscape:pageopacity="0.0"
     borderopacity="1.0"
     bordercolor="#666666"
     pagecolor="#ffffff"
     id="base" />
  <metadata
     id="metadata3141">
    <rdf:RDF>
      <cc:Work
         rdf:about="">
        <dc:format>image/svg+xml</dc:format>
        <dc:type
           rdf:resource="http://purl.org/dc/dcmitype/StillImage" />
        <dc:title></dc:title>
      </cc:Work>
    </rdf:RDF>
  </metadata>
  <g
     transform="translate(-32.910641,-38.737245)"
     id="layer1"
     inkscape:groupmode="layer"
     inkscape:label="Layer 1">
    <g
       transform="translate(-21.544635,-354.25736)"
       id="g3089">
      <path
         d="m 257.07084,579.50311 c -3.25213,-4.1808 -5.26041,-9.31698 -5.70669,-14.59488 -0.44628,-5.27791 0.67105,-10.67838 3.175,-15.34589 3.16,-5.89044 8.32409,-10.41 13.44133,-14.71079 5.11724,-4.3008 10.39678,-8.62953 13.91687,-14.31213 1.35784,-2.19201 2.43263,-4.55915 3.18928,-7.02413 m -65.15978,7.67511 c 2.9909,1.75856 6.55759,2.51871 10.00561,2.13245 3.44803,-0.38626 6.7581,-1.91678 9.28575,-4.29355 3.45181,-3.24577 5.29263,-7.79463 7.71691,-11.86561 1.21215,-2.03549 2.60399,-3.99228 4.37907,-5.56123 1.77508,-1.56895 3.96455,-2.73681 6.31814,-3.00724 2.57921,-0.29635 5.17601,0.49346 7.50117,1.64834 2.32516,1.15488 4.4496,2.67144 6.69853,3.96853 3.87402,2.23437 8.12492,3.81343 12.51816,4.65005 m -141.03106,66.91029 c -0.24948,-9.0061 2.73764,-18.06814 8.29366,-25.16058 5.69521,-7.27012 14.04905,-12.40915 23.10619,-14.21423 M 85.466228,469.41014 c -1.589545,-10.95366 1.203377,-22.48164 7.629961,-31.4932 5.218033,-7.31689 12.761611,-12.94864 21.259841,-15.87179 m 57.7634,97.45133 c -4.44923,3.48439 -10.5523,4.75228 -16.02121,3.32836 -4.76145,-1.23972 -8.8289,-4.32492 -12.40099,-7.70849 -3.57208,-3.38356 -6.80236,-7.14403 -10.66294,-10.19431 -5.1557,-4.07357 -11.37864,-6.78405 -17.87278,-7.78473"
         style="fill:none;stroke:#000000;stroke-width:1.32292;stroke-linecap:round;stroke-linejoin:miter;stroke-miterlimit:4;stroke-dasharray:5.29167, 5.29167;stroke-dashoffset:0;stroke-opacity:1"
         id="path5726" />
      <g
         style="stroke-width:1.26506"
         transform="matrix(0.79047838,0,0,0.79047838,44.475295,96.620088)"
         id="g5676">
        <g
           style="stroke-width:1.26506"
           id="g5624"
           transform="translate(-1.6273287,0.78012453)">
          <g
             style="stroke-width:1.26506"
             transform="translate(-2.4318693e-7,-5.2922175)"
             id="g5556">
            <circle
               style="fill:#2e3440;fill-opacity:1;stroke:none;stroke-width:0.334713;stroke-linecap:butt;stroke-linejoin:round;stroke-miterlimit:4;stroke-dasharray:none;stroke-dashoffset:0;stroke-opacity:1"
               id="path5485"
               cx="196.39825"
               cy="540.59143"
               r="39.6875" />
            <path
               id="path5169"
               d="m 179.38932,523.02915 3.09172,35.0632 13.87291,4.6243 13.9615,-4.6243 3.09173,-35.0632 z m 27.30288,11.33043 h -16.28252 l 0.36321,4.37625 h 15.5561 l -1.20481,13.14649 -8.67278,2.39188 v 0.0265 h -0.0975 l -8.74365,-2.41847 -0.53153,-6.71498 h 4.22566 l 0.31005,3.37521 4.73947,1.28452 4.75719,-1.28452 0.53153,-5.51018 H 186.8573 l -1.13393,-12.89839 h 21.35862 z"
               fill="currentColor"
               style="fill:#ffffff;fill-opacity:1;stroke-width:0.334713" />
          </g>
          <text
             id="text5572"
             y="587.99414"
             x="177.13669"
             style="font-style:normal;font-variant:normal;font-weight:bold;font-stretch:normal;font-size:10.5833px;line-height:1.25;font-family:sans-serif;-inkscape-font-specification:'sans-serif, Bold';font-variant-ligatures:normal;font-variant-caps:normal;font-variant-numeric:normal;font-variant-east-asian:normal;text-align:justify;letter-spacing:0px;word-spacing:0px;fill:#2e3440;fill-opacity:1;stroke-width:0.334713"
             xml:space="preserve"><tspan
               style="font-style:normal;font-variant:normal;font-weight:bold;font-stretch:normal;font-size:10.5833px;font-family:sans-serif;-inkscape-font-specification:'sans-serif, Bold';font-variant-ligatures:normal;font-variant-caps:normal;font-variant-numeric:normal;font-variant-east-asian:normal;fill:#2e3440;fill-opacity:1;stroke-width:0.334713"
               y="587.99414"
               x="177.13669"
               id="tspan5570"
               sodipodi:role="line">HTML 5</tspan></text>
        </g>
        <g
           style="stroke-width:1.26506"
           id="g5631"
           transform="translate(23.909329,2.7935161)">
          <g
             style="stroke-width:1.26506"
             transform="translate(0,-2.6460983)"
             id="g5560">
            <circle
               style="fill:#2e3440;fill-opacity:1;stroke:none;stroke-width:0.334713;stroke-linecap:butt;stroke-linejoin:round;stroke-miterlimit:4;stroke-dasharray:none;stroke-dashoffset:0;stroke-opacity:1"
               id="circle5493"
               cx="99.632507"
               cy="642.69391"
               r="39.6875" />
            <path
               id="path5364"
               d="m 118.74861,637.77687 c -0.68211,-2.73729 -1.97545,-4.80132 -4.73045,-4.80132 h -3.55226 v 4.19894 c 0,3.25993 -2.76386,6.00607 -5.91749,6.00607 h -9.460895 c -2.586683,0 -4.730445,2.21463 -4.730445,4.81017 v 9.01797 c 0,2.56897 2.232345,4.07492 4.730445,4.81017 2.99418,0.87699 5.873195,1.03645 9.460895,0 2.38295,-0.69097 4.73045,-2.08175 4.73045,-4.81017 v -3.60542 h -9.452033 v -1.20475 h 14.191333 c 2.755,0 3.77373,-1.9223 4.73045,-4.80132 0.99216,-2.9676 0.94786,-5.82004 0,-9.62034 z m -13.60668,18.02707 c 0.9833,0 1.78056,0.80612 1.78056,1.79828 0,1.00101 -0.79726,1.80713 -1.78056,1.80713 -0.97443,0 -1.78056,-0.81497 -1.78056,-1.80713 0.009,-1.00101 0.80613,-1.79828 1.78056,-1.79828 z M 94.653452,641.99352 h 9.460898 c 2.63097,0 4.73045,-2.17034 4.73045,-4.81017 v -9.02683 c 0,-2.56897 -2.16149,-4.49126 -4.73045,-4.92533 -3.17135,-0.52266 -6.617318,-0.49608 -9.460898,0.009 -4.004047,0.70868 -4.730444,2.18805 -4.730444,4.92533 v 3.60541 h 9.469749 v 1.20477 H 86.370738 c -2.754998,0 -5.164508,1.65653 -5.917485,4.80131 -0.868132,3.60541 -0.903562,5.85547 0,9.62034 0.673245,2.79929 2.27664,4.80132 5.031637,4.80132 h 3.251078 v -4.32296 c 0,-3.12705 2.701845,-5.88205 5.917484,-5.88205 z m -0.59352,-12.63224 c -0.983295,0 -1.78056,-0.80613 -1.78056,-1.79828 0.0088,-1.00101 0.797265,-1.80713 1.78056,-1.80713 0.974438,0 1.78056,0.81498 1.78056,1.80713 0,0.99215 -0.797265,1.79828 -1.78056,1.79828 z"
               fill="currentColor"
               style="fill:#ffffff;fill-opacity:1;stroke-width:0.334713" />
          </g>
          <text
             id="text5580"
             y="692.86975"
             x="77.397026"
             style="font-style:normal;font-variant:normal;font-weight:bold;font-stretch:normal;font-size:10.5833px;line-height:1.25;font-family:sans-serif;-inkscape-font-specification:'sans-serif, Bold';font-variant-ligatures:normal;font-variant-caps:normal;font-variant-numeric:normal;font-variant-east-asian:normal;text-align:justify;letter-spacing:0px;word-spacing:0px;fill:#2e3440;fill-opacity:1;stroke-width:0.334713"
             xml:space="preserve"><tspan
               style="font-style:normal;font-variant:normal;font-weight:bold;font-stretch:normal;font-size:10.5833px;font-family:sans-serif;-inkscape-font-specification:'sans-serif, Bold';font-variant-ligatures:normal;font-variant-caps:normal;font-variant-numeric:normal;font-variant-east-asian:normal;fill:#2e3440;fill-opacity:1;stroke-width:0.334713"
               y="692.86975"
               x="77.397026"
               id="tspan5578"
               sodipodi:role="line">PYTHON</tspan></text>
        </g>
        <g
           style="stroke-width:1.26506"
           id="g5638"
           transform="translate(-87.109002,-15.559328)">
          <g
             style="stroke-width:1.26506"
             transform="translate(0,-2.6460983)"
             id="g5548">
            <circle
               r="39.6875"
               cy="661.04675"
               cx="353.10901"
               id="circle5487"
               style="fill:#2e3440;fill-opacity:1;stroke:none;stroke-width:0.334713;stroke-linecap:butt;stroke-linejoin:round;stroke-miterlimit:4;stroke-dasharray:none;stroke-dashoffset:0;stroke-opacity:1" />
            <path
               id="path5419"
               d="m 366.85534,644.40137 h -7.95404 l -5.79229,9.16422 -4.96481,-9.16422 h -18.20434 l 23.16914,39.6875 23.16915,-39.6875 z m -31.15423,3.30987 h 5.56474 l 11.84315,20.50056 11.83282,-20.50056 h 5.56473 L 353.109,677.52083 Z"
               fill="currentColor"
               style="fill:#ffffff;fill-opacity:1;stroke-width:0.334713" />
          </g>
          <text
             id="text5584"
             y="711.2226"
             x="334.33954"
             style="font-style:normal;font-variant:normal;font-weight:bold;font-stretch:normal;font-size:10.5833px;line-height:1.25;font-family:sans-serif;-inkscape-font-specification:'sans-serif, Bold';font-variant-ligatures:normal;font-variant-caps:normal;font-variant-numeric:normal;font-variant-east-asian:normal;text-align:justify;letter-spacing:0px;word-spacing:0px;fill:#2e3440;fill-opacity:1;stroke-width:0.334713"
             xml:space="preserve"><tspan
               style="font-style:normal;font-variant:normal;font-weight:bold;font-stretch:normal;font-size:10.5833px;font-family:sans-serif;-inkscape-font-specification:'sans-serif, Bold';font-variant-ligatures:normal;font-variant-caps:normal;font-variant-numeric:normal;font-variant-east-asian:normal;fill:#2e3440;fill-opacity:1;stroke-width:0.334713"
               y="711.2226"
               x="334.33954"
               id="tspan5582"
               sodipodi:role="line">VUE JS</tspan></text>
        </g>
        <g
           style="stroke-width:1.26506"
           id="g5617"
           transform="translate(20.623772,-18.117064)">
          <g
             style="stroke-width:1.26506"
             transform="translate(0,-2.6460983)"
             id="g5552">
            <circle
               style="fill:#2e3440;fill-opacity:1;stroke:none;stroke-width:0.334713;stroke-linecap:butt;stroke-linejoin:round;stroke-miterlimit:4;stroke-dasharray:none;stroke-dashoffset:0;stroke-opacity:1"
               id="circle5495"
               cx="316.60532"
               cy="531.02728"
               r="39.6875" />
            <path
               id="path5474"
               d="m 296.76157,511.18353 v 39.6875 h 39.6875 v -39.6875 z m 21.5978,30.9527 c 0,3.86245 -2.26786,5.62536 -5.5722,5.62536 -2.98542,0 -4.71289,-1.54144 -5.59877,-3.41065 l 3.03857,-1.83377 c 0.58469,1.03648 1.11621,1.9135 2.40074,1.9135 1.22251,0 2.00209,-0.47838 2.00209,-2.34759 v -12.67697 h 3.72957 z m 8.82338,5.62536 c -3.4638,0 -5.70508,-1.64775 -6.79472,-3.8093 l 3.03858,-1.75404 c 0.79729,1.30225 1.84263,2.26785 3.67641,2.26785 1.54143,0 2.53362,-0.77071 2.53362,-1.84263 0,-1.27567 -1.00991,-1.72747 -2.71965,-2.48047 l -0.93018,-0.39864 c -2.69308,-1.14279 -4.47371,-2.58678 -4.47371,-5.62536 0,-2.79938 2.13498,-4.9255 5.45704,-4.9255 2.37416,0 4.07505,0.82387 5.29757,2.98543 l -2.90569,1.86035 c -0.63784,-1.14279 -1.32882,-1.59459 -2.40075,-1.59459 -1.08963,0 -1.78062,0.69099 -1.78062,1.59459 0,1.11621 0.69099,1.56801 2.29443,2.26786 l 0.93018,0.39864 c 3.17146,1.3554 4.95208,2.74623 4.95208,5.86454 0,3.34863 -2.63992,5.19127 -6.17459,5.19127 z"
               fill="currentColor"
               style="fill:#ffffff;fill-opacity:1;stroke-width:0.334713" />
          </g>
          <text
             id="text5588"
             y="581.20312"
             x="283.90298"
             style="font-style:normal;font-variant:normal;font-weight:bold;font-stretch:normal;font-size:10.5833px;line-height:1.25;font-family:sans-serif;-inkscape-font-specification:'sans-serif, Bold';font-variant-ligatures:normal;font-variant-caps:normal;font-variant-numeric:normal;font-variant-east-asian:normal;text-align:justify;letter-spacing:0px;word-spacing:0px;fill:#2e3440;fill-opacity:1;stroke-width:0.334713"
             xml:space="preserve"><tspan
               style="font-style:normal;font-variant:normal;font-weight:bold;font-stretch:normal;font-size:10.5833px;font-family:sans-serif;-inkscape-font-specification:'sans-serif, Bold';font-variant-ligatures:normal;font-variant-caps:normal;font-variant-numeric:normal;font-variant-east-asian:normal;fill:#2e3440;fill-opacity:1;stroke-width:0.334713"
               y="581.20312"
               x="283.90298"
               id="tspan5586"
               sodipodi:role="line">JAVASCRIPT</tspan></text>
        </g>
        <g
           style="stroke-width:1.26506"
           id="g5610"
           transform="translate(-7.1050448,-15.113416)">
          <g
             style="stroke-width:1.26506"
             transform="translate(0,-2.6460983)"
             id="g5564">
            <circle
               style="fill:#2e3440;fill-opacity:1;stroke:none;stroke-width:0.334713;stroke-linecap:butt;stroke-linejoin:round;stroke-miterlimit:4;stroke-dasharray:none;stroke-dashoffset:0;stroke-opacity:1"
               id="circle5491"
               cx="130.64688"
               cy="432.37759"
               r="39.6875" />
            <path
               id="path5309"
               d="m 132.09388,442.53835 c -0.0248,0.0496 -0.0496,0.0893 0,0 z m 20.59696,-7.19277 a 10.843725,10.843725 0 0 0 -4.79518,1.11612 c -0.48779,-0.98384 -0.99211,-1.84367 -1.07478,-2.48854 -0.0992,-0.75235 -0.20669,-1.19879 -0.0909,-2.09169 0.11575,-0.8929 0.6366,-2.15783 0.62834,-2.24878 -0.008,-0.0909 -0.11575,-0.54565 -1.18226,-0.55392 -1.06652,-0.008 -1.98422,0.20669 -2.09087,0.48778 a 10.155038,10.155038 0 0 0 -0.43818,1.5791 c -0.19015,0.96731 -2.1322,4.42315 -3.23179,6.22548 -0.36377,-0.70275 -0.66966,-1.32281 -0.73581,-1.81887 -0.0992,-0.75234 -0.20669,-1.19879 -0.0909,-2.09169 0.11575,-0.89289 0.6366,-2.15783 0.62833,-2.24877 -0.008,-0.0909 -0.11574,-0.54566 -1.18143,-0.55393 -1.06569,-0.008 -1.98421,0.20669 -2.09169,0.48778 -0.10748,0.2811 -0.22323,0.94251 -0.43818,1.57911 -0.21496,0.6366 -2.80188,6.39082 -3.47899,7.88725 -0.34724,0.76061 -0.64487,1.37241 -0.85982,1.7858 -0.0331,0.0661 -0.0579,0.10747 -0.0744,0.14054 0.0248,-0.0413 0.0413,-0.0827 0.0413,-0.0661 -0.18189,0.35551 -0.28936,0.55393 -0.28936,0.55393 v 0.008 c -0.14055,0.26456 -0.29763,0.50432 -0.37204,0.50432 -0.0496,0 -0.15709,-0.69448 0.0248,-1.64525 0.38858,-2.00074 1.30627,-5.10934 1.29801,-5.21682 -0.008,-0.0579 0.17361,-0.59526 -0.60354,-0.88463 -0.75234,-0.27283 -1.02517,0.18188 -1.09131,0.18188 -0.0661,0 -0.11575,0.16536 -0.11575,0.16536 0,0 0.83503,-3.50545 -1.60307,-3.50545 -1.52123,0 -3.63773,1.67005 -4.67779,3.18301 -0.65314,0.3555 -2.06689,1.12439 -3.55504,1.94288 -0.57047,0.31417 -1.15746,0.6366 -1.71139,0.9425 -0.0413,-0.0413 -0.0744,-0.0827 -0.11574,-0.12403 -2.95896,-3.1582 -8.42216,-5.39044 -8.19068,-9.6317 0.0827,-1.54603 0.62007,-5.6054 10.50559,-10.53286 8.1022,-4.03457 14.57983,-2.92672 15.69513,-0.46299 1.6039,3.51372 -3.46328,10.05335 -11.87717,10.99585 -3.20699,0.35551 -4.89275,-0.88462 -5.31439,-1.34761 -0.43818,-0.48779 -0.50432,-0.51259 -0.66967,-0.42165 -0.27283,0.14882 -0.0992,0.57873 0,0.83503 0.24803,0.65313 1.28148,1.81059 3.04164,2.38932 1.54602,0.50432 5.30611,0.78542 9.85244,-0.97557 5.1077,-1.96768 9.08356,-7.44907 7.91784,-12.03756 -1.18722,-4.66291 -8.91904,-6.1924 -16.23004,-3.59639 -4.35617,1.54603 -9.06703,3.97669 -12.4559,7.14317 -4.02547,3.77 -4.66952,7.05222 -4.40495,8.42464 0.94167,4.86959 7.65327,8.04433 10.33941,10.39231 -0.13229,0.0744 -0.2563,0.14055 -0.37205,0.2067 -1.34678,0.66966 -6.46357,3.34836 -7.74422,6.17585 -1.44682,3.20781 0.23977,5.5062 1.34679,5.82036 3.45501,0.95904 6.9927,-0.76888 8.89341,-3.60465 1.90071,-2.83578 1.67005,-6.53963 0.79369,-8.22622 -0.008,-0.0248 -0.0248,-0.0413 -0.0331,-0.0661 0.34724,-0.20669 0.70274,-0.41338 1.05825,-0.62007 0.68537,-0.40511 1.35505,-0.77715 1.94204,-1.09958 -0.33069,0.8929 -0.57045,1.96768 -0.69447,3.52198 -0.14882,1.81886 0.60354,4.17511 1.57911,5.10107 0.42991,0.40512 0.94994,0.41338 1.27237,0.41338 1.14092,0 1.65351,-0.94249 2.22315,-2.06689 0.70274,-1.37241 1.32281,-2.96804 1.32281,-2.96804 0,0 -0.77715,4.31566 1.34761,4.31566 0.77632,0 1.55347,-1.00037 1.90153,-1.51297 v 0.008 c 0,0 0.0165,-0.0331 0.0579,-0.0992 0.0827,-0.12401 0.12402,-0.19842 0.12402,-0.19842 v -0.0248 c 0.31416,-0.53739 1.00037,-1.76926 2.03298,-3.80308 1.33935,-2.62908 2.61999,-5.9113 2.61999,-5.9113 a 16.637628,16.637628 0 0 0 0.51259,2.13303 c 0.2315,0.78542 0.71928,1.64525 1.10786,2.48027 -0.31417,0.42991 -0.50433,0.67794 -0.50433,0.67794 a 0.02562942,0.02562942 0 0 0 0.008,0.0165 c -0.24802,0.3307 -0.52911,0.6862 -0.81848,1.03345 -1.05742,1.25666 -2.31492,2.69521 -2.48027,3.10859 -0.19842,0.48779 -0.14882,0.85155 0.23149,1.13265 0.2811,0.21496 0.77715,0.24803 1.29718,0.2067 0.95077,-0.0661 1.62044,-0.29763 1.94288,-0.44646 a 6.7959304,6.7959304 0 0 0 1.66922,-0.87636 c 1.03344,-0.76061 1.66177,-1.85192 1.6039,-3.29048 -0.0331,-0.79368 -0.28936,-1.58737 -0.60353,-2.33145 0.0909,-0.13228 0.19016,-0.27282 0.2811,-0.41337 1.63615,-2.38933 2.90108,-5.0118 2.90108,-5.0118 a 16.637628,16.637628 0 0 0 0.51259,2.13303 c 0.19842,0.66967 0.58617,1.40549 0.94168,2.12476 -1.53695,1.2484 -2.48771,2.69522 -2.81841,3.64599 -0.61181,1.76099 -0.13229,2.55468 0.76888,2.73656 0.40511,0.0827 0.98384,-0.10747 1.41375,-0.28936 a 6.5693991,6.5693991 0 0 0 1.78497,-0.9177 c 1.03344,-0.76061 2.03299,-1.82713 1.96685,-3.27395 -0.0248,-0.65314 -0.20669,-1.30627 -0.44645,-1.93461 1.29801,-0.54566 2.98376,-0.84329 5.13333,-0.59526 4.60337,0.53739 5.50453,3.4145 5.33091,4.61329 -0.17361,1.1988 -1.14092,1.86847 -1.46335,2.06689 -0.32244,0.19843 -0.42165,0.27283 -0.39685,0.42165 0.0413,0.21495 0.19016,0.20668 0.46299,0.15708 0.3803,-0.0661 2.4133,-0.97557 2.50424,-3.19955 0.13228,-2.81096 -2.57038,-5.90303 -7.35813,-5.87823 z m -35.48269,11.96314 c -1.52041,1.66178 -3.65344,2.29012 -4.5703,1.76099 -0.98385,-0.57211 -0.59527,-3.01765 1.28064,-4.78857 1.14092,-1.07477 2.61172,-2.06688 3.58729,-2.67868 0.22322,-0.13228 0.54566,-0.3307 0.9425,-0.57046 0.0662,-0.0413 0.0992,-0.0579 0.0992,-0.0579 0.0744,-0.0496 0.15708,-0.0909 0.23976,-0.14055 0.68538,2.51334 0.0248,4.72904 -1.5791,6.4735 z m 11.10829,-7.55654 c -0.52913,1.29801 -1.64442,4.60503 -2.32236,4.43141 -0.57873,-0.14881 -0.93424,-2.67042 -0.11575,-5.15069 0.41338,-1.2484 1.28974,-2.73655 1.8106,-3.31528 0.83419,-0.93424 1.75189,-1.23187 1.96685,-0.85983 0.28936,0.48779 -1.00864,4.08417 -1.33934,4.89439 z m 9.17698,4.38181 c -0.22322,0.11574 -0.42991,0.19014 -0.52912,0.13227 -0.0744,-0.0413 0.0909,-0.19842 0.0909,-0.19842 0,0 1.14919,-1.23186 1.60391,-1.79405 0.26456,-0.3307 0.57045,-0.71928 0.90033,-1.14919 0,0.0413 0.008,0.0827 0.008,0.13228 -0.0107,1.47989 -1.43194,2.48026 -2.07681,2.87711 z m 7.07537,-1.61218 c -0.16535,-0.11575 -0.14055,-0.50431 0.41338,-1.71138 0.21496,-0.47125 0.71018,-1.26493 1.57084,-2.02555 a 2.9912014,2.9912014 0 0 1 0.15708,0.89289 c -0.008,1.86021 -1.33934,2.55468 -2.14047,2.84404 z"
               fill="currentColor"
               style="fill:#ffffff;fill-opacity:1;stroke-width:0.334713" />
          </g>
          <text
             id="text5592"
             y="482.55341"
             x="116.35415"
             style="font-style:normal;font-variant:normal;font-weight:bold;font-stretch:normal;font-size:10.5833px;line-height:1.25;font-family:sans-serif;-inkscape-font-specification:'sans-serif, Bold';font-variant-ligatures:normal;font-variant-caps:normal;font-variant-numeric:normal;font-variant-east-asian:normal;text-align:justify;letter-spacing:0px;word-spacing:0px;fill:#2e3440;fill-opacity:1;stroke-width:0.334713"
             xml:space="preserve"><tspan
               style="font-style:normal;font-variant:normal;font-weight:bold;font-stretch:normal;font-size:10.5833px;font-family:sans-serif;-inkscape-font-specification:'sans-serif, Bold';font-variant-ligatures:normal;font-variant-caps:normal;font-variant-numeric:normal;font-variant-east-asian:normal;fill:#2e3440;fill-opacity:1;stroke-width:0.334713"
               y="482.55341"
               x="116.35415"
               id="tspan5590"
               sodipodi:role="line">SASS</tspan></text>
        </g>
        <g
           style="stroke-width:1.26506"
           id="g5603">
          <g
             style="stroke-width:1.26506"
             transform="translate(12.625242,1.9656587)"
             id="g5568">
            <circle
               style="fill:#2e3440;fill-opacity:1;stroke:none;stroke-width:0.334713;stroke-linecap:butt;stroke-linejoin:round;stroke-miterlimit:4;stroke-dasharray:none;stroke-dashoffset:0;stroke-opacity:1"
               id="circle5489"
               cx="39.6875"
               cy="508.29846"
               r="39.6875" />
            <path
               id="path5224"
               d="m 22.678573,490.37068 3.091725,35.0632 13.917202,4.6243 13.917201,-4.6243 3.091725,-35.0632 z m 27.736956,7.08706 -0.425227,4.19022 -10.214212,4.36739 -0.02655,0.009 h 9.877574 l -1.133925,12.98703 -8.699354,2.54248 -8.752515,-2.58678 -0.566963,-6.54666 h 4.331963 l 0.283485,3.39292 4.659735,1.17823 4.845772,-1.36427 0.327772,-5.45703 -14.732204,-0.0442 v -0.009 l -0.0177,0.009 -0.318915,-4.10163 9.930727,-4.13707 0.575828,-0.23919 H 29.473332 l -0.51381,-4.19022 z"
               fill="currentColor"
               style="fill:#ffffff;fill-opacity:1;stroke-width:0.334713" />
          </g>
          <text
             xml:space="preserve"
             style="font-style:normal;font-variant:normal;font-weight:bold;font-stretch:normal;font-size:10.5833px;line-height:1.25;font-family:sans-serif;-inkscape-font-specification:'sans-serif, Bold';font-variant-ligatures:normal;font-variant-caps:normal;font-variant-numeric:normal;font-variant-east-asian:normal;text-align:justify;letter-spacing:0px;word-spacing:0px;fill:#2e3440;fill-opacity:1;stroke-width:0.334713"
             x="36.998718"
             y="563.08606"
             id="text5576"><tspan
               sodipodi:role="line"
               id="tspan5574"
               x="36.998718"
               y="563.08606"
               style="font-style:normal;font-variant:normal;font-weight:bold;font-stretch:normal;font-size:10.5833px;font-family:sans-serif;-inkscape-font-specification:'sans-serif, Bold';font-variant-ligatures:normal;font-variant-caps:normal;font-variant-numeric:normal;font-variant-east-asian:normal;fill:#2e3440;fill-opacity:1;stroke-width:0.334713">CSS 3</tspan></text>
        </g>
      </g>
    </g>
  </g>
</svg>
