<?xml version="1.0" encoding="UTF-8"?>
<svg width="119.06mm" height="41.278mm" version="1.1" viewBox="0 0 119.06 41.278" xmlns="http://www.w3.org/2000/svg" xmlns:cc="http://creativecommons.org/ns#" xmlns:dc="http://purl.org/dc/elements/1.1/" xmlns:rdf="http://www.w3.org/1999/02/22-rdf-syntax-ns#">
 <metadata>
  <rdf:RDF>
   <cc:Work rdf:about="">
    <dc:format>image/svg+xml</dc:format>
    <dc:type rdf:resource="http://purl.org/dc/dcmitype/StillImage"/>
    <dc:title/>
   </cc:Work>
  </rdf:RDF>
 </metadata>
 <g transform="translate(-21.053 -94.608)">
  <g transform="translate(21.053 -179.52)" stroke="#fff">
   <path d="m32.226 314.88a27.306 27.306 0 0 1 27.306-27.306 27.306 27.306 0 0 1 27.306 27.306" fill="none" stroke-width="1.0583"/>
   <path d="m35.061 314.88a24.471 24.471 0 0 1 24.471-24.471 24.471 24.471 0 0 1 24.471 24.471" fill="#fff" stroke-width=".52917"/>
   <g fill="none" stroke-linecap="round" stroke-linejoin="round">
    <g stroke-dasharray="4.23333, 2.11667" stroke-width="1.0583">
     <path d="m59.825 283.3v-8.644"/>
     <path d="m75.612 287.53 4.322-7.4859"/>
     <path d="m87.17 299.09 7.4859-4.322"/>
     <path d="m44.037 287.53-4.322-7.4859"/>
     <path d="m32.479 299.09-7.4859-4.322"/>
    </g>
    <g stroke-width=".52917">
     <path d="m51.036 283.21-1.3543-5.0544"/>
     <path d="m68.046 283.21 1.3543-5.0544"/>
     <path d="m82.778 291.72 3.7001-3.7001"/>
     <path d="m91.283 306.45 5.0544-1.3544"/>
     <path d="m22.745 305.1 5.0544 1.3543"/>
     <path d="m32.605 288.02 3.7001 3.7001"/>
    </g>
   </g>
  </g>
 </g>
</svg>
