<?xml version="1.0" encoding="UTF-8"?>
<svg width="119.06mm" height="24.303mm" version="1.1" viewBox="0 0 119.06 24.303" xmlns="http://www.w3.org/2000/svg" xmlns:cc="http://creativecommons.org/ns#" xmlns:dc="http://purl.org/dc/elements/1.1/" xmlns:rdf="http://www.w3.org/1999/02/22-rdf-syntax-ns#">
 <metadata>
  <rdf:RDF>
   <cc:Work rdf:about="">
    <dc:format>image/svg+xml</dc:format>
    <dc:type rdf:resource="http://purl.org/dc/dcmitype/StillImage"/>
    <dc:title/>
   </cc:Work>
  </rdf:RDF>
 </metadata>
 <g transform="translate(-15.847 -110)" fill="none" stroke="#fff" stroke-linecap="round" stroke-width="1.0583">
  <path d="m66.43 115.42 5.4134 5.4134m-5.4134-5.4134-5.4134 5.4134m5.4134-0.52063 5.4134 5.4134m-5.4134-5.4134-5.4134 5.4134m5.4134-0.52063 5.4134 5.4134m-5.4134-5.4134-5.4134 5.4134m5.4134-20.092 5.4134 5.4134m-5.4134-5.4134-5.4134 5.4134m5.4134 17.831v-23.244"/>
  <path d="m88.122 115.42 5.4134 5.4134m-5.4134-5.4134-5.4134 5.4134m5.4134-0.52063 5.4134 5.4134m-5.4134-5.4134-5.4134 5.4134m5.4134-0.52063 5.4134 5.4134m-5.4134-5.4134-5.4134 5.4134m5.4134-20.092 5.4134 5.4134m-5.4134-5.4134-5.4134 5.4134m5.4134 17.831v-23.244"/>
  <path d="m46.15 120.01 4.002 3.9642m-4.002-3.9642-4.002 3.9642m4.002-0.38126 4.002 3.9642m-4.002-3.9642-4.002 3.9642m4.002-0.38125 4.002 3.9642m-4.002-3.9642-4.002 3.9642m4.002-14.713 4.002 3.9642m-4.002-3.9642-4.002 3.9642m4.002 13.057v-17.022"/>
  <path d="m108.4 120.01 4.002 3.9642m-4.002-3.9642-4.002 3.9642m4.002-0.38126 4.002 3.9642m-4.002-3.9642-4.002 3.9642m4.002-0.38125 4.002 3.9642m-4.002-3.9642-4.002 3.9642m4.002-14.713 4.002 3.9642m-4.002-3.9642-4.002 3.9642m4.002 13.057v-17.022"/>
 </g>
</svg>
