<?xml version="1.0" encoding="UTF-8"?>
<svg width="119.06mm" height="44.341mm" version="1.1" viewBox="0 0 119.06 44.341" xmlns="http://www.w3.org/2000/svg" xmlns:cc="http://creativecommons.org/ns#" xmlns:dc="http://purl.org/dc/elements/1.1/" xmlns:rdf="http://www.w3.org/1999/02/22-rdf-syntax-ns#">
 <metadata>
  <rdf:RDF>
   <cc:Work rdf:about="">
    <dc:format>image/svg+xml</dc:format>
    <dc:type rdf:resource="http://purl.org/dc/dcmitype/StillImage"/>
    <dc:title/>
   </cc:Work>
  </rdf:RDF>
 </metadata>
 <g transform="translate(-26.201 -98.095)" stroke="#fff">
  <g stroke-width=".52917">
   <path d="m89.74 102.11-4.577 7.9282-2.6122 9.7482h-4.192l-3.7527 6.4994-18.053 15.617h29.281l5.2467-9.0883 8.183-2.0846-5.101 5.101-8.3287 6.072h38.583l-5.9004-10.22-6.888-1.8459-9.2325-15.991-4.4106 2.5461z" fill="#fff" stroke-linecap="round" stroke-linejoin="round"/>
   <path d="m102.4 113.85-6.9569-1.8641 2.5464 4.4105z" fill="none" stroke-linecap="round" stroke-linejoin="round"/>
   <path d="m75.028 105.01a13.251 13.209 90 0 0-11.43 6.6254 13.251 13.209 90 0 0 1.54 15.398l3.2825-5.686h4.8137l8.4078-14.562a13.251 13.209 90 0 0-6.6141-1.7751z" fill="none"/>
   <path d="m74.984 106.39a11.875 11.837 90 0 0-10.198 5.9371 11.875 11.837 90 0 0 1.0816 13.447l2.5533-4.423h4.8137l7.7205-13.371a11.875 11.837 90 0 0-5.9712-1.5896z" fill="#fff"/>
  </g>
  <g fill="#5e81ac" stroke-linecap="round" stroke-linejoin="round">
   <g stroke-dasharray="4.23333, 2.11667" stroke-width="1.0583">
    <path d="m61.88 110.48-3.6212-2.0973"/>
    <path d="m67.471 104.87-2.0907-3.6327"/>
    <path d="m75.108 102.82-1e-5 -4.1947"/>
    <path d="m59.834 118.14h-4.1814"/>
    <path d="m61.88 125.8-3.6213 2.0973"/>
   </g>
   <g stroke-width=".52917">
    <path d="m59.717 114.15-2.445-0.65722"/>
    <path d="m63.831 107-1.7899-1.7955"/>
    <path d="m70.958 102.88-0.65513-2.4527"/>
    <path d="m79.186 102.88 0.65513-2.4528"/>
    <path d="m57.272 123.06 2.445-0.65722"/>
   </g>
  </g>
  <path d="m89.74 102.11-4.5772 7.928-2.6121 9.7485h-4.1923l-3.7524 6.4993-18.053 15.617 11.868-20.555h4.8138l8.4073-14.562z" fill="none" stroke-linecap="round" stroke-linejoin="round" stroke-width=".52917"/>
 </g>
</svg>
